<?xml version="1.0" encoding="UTF-8" standalone="no"?>
<svg
   width="719pt"
   height="524pt"
   viewBox="0 0 719 524"
   version="1.1"
   id="svg2"
   inkscape:version="1.1 (c68e22c387, 2021-05-23)"
   sodipodi:docname="logo_large.svg"
   xmlns:inkscape="http://www.inkscape.org/namespaces/inkscape"
   xmlns:sodipodi="http://sodipodi.sourceforge.net/DTD/sodipodi-0.dtd"
   xmlns="http://www.w3.org/2000/svg"
   xmlns:svg="http://www.w3.org/2000/svg"
   xmlns:rdf="http://www.w3.org/1999/02/22-rdf-syntax-ns#"
   xmlns:cc="http://creativecommons.org/ns#"
   xmlns:dc="http://purl.org/dc/elements/1.1/">
  <metadata
     id="metadata86">
    <rdf:RDF>
      <cc:Work
         rdf:about="">
        <dc:format>image/svg+xml</dc:format>
        <dc:type
           rdf:resource="http://purl.org/dc/dcmitype/StillImage" />
      </cc:Work>
    </rdf:RDF>
  </metadata>
  <sodipodi:namedview
     pagecolor="#ffffff"
     bordercolor="#666666"
     borderopacity="1"
     objecttolerance="10"
     gridtolerance="10"
     guidetolerance="10"
     inkscape:pageopacity="0"
     inkscape:pageshadow="2"
     inkscape:window-width="1920"
     inkscape:window-height="1001"
     id="namedview84"
     showgrid="false"
     inkscape:zoom="1.0190974"
     inkscape:cx="373.36961"
     inkscape:cy="383.18222"
     inkscape:window-x="-9"
     inkscape:window-y="-9"
     inkscape:window-maximized="1"
     inkscape:current-layer="svg2"
     inkscape:pagecheckerboard="0"
     inkscape:document-units="pt" />
  <defs
     id="defs4">
    <marker
       style="overflow:visible;"
       id="Arrow1Lend"
       refX="0.0"
       refY="0.0"
       orient="auto"
       inkscape:stockid="Arrow1Lend"
       inkscape:isstock="true">
      <path
         transform="scale(0.8) rotate(180) translate(12.5,0)"
         style="fill-rule:evenodd;fill:context-stroke;stroke:context-stroke;stroke-width:1.0pt;"
         d="M 0.0,0.0 L 5.0,-5.0 L -12.5,0.0 L 5.0,5.0 L 0.0,0.0 z "
         id="path1937" />
    </marker>
    <clipPath
       id="clip1">
      <path
         d="M 68.761719 7.757812 L 712.5 7.757812 L 712.5 451.199219 L 68.761719 451.199219 Z M 68.761719 7.757812 "
         id="path7" />
    </clipPath>
  </defs>
  <g
     clip-path="url(#clip1)"
     clip-rule="nonzero"
     id="g50"
     transform="matrix(0.78600754,0,0,1,45.637333,16.926743)"
     style="stroke:#ffcc00">
    <path
       style="fill:none;stroke:#ffcc00;stroke-width:10.5756;stroke-linecap:butt;stroke-linejoin:miter;stroke-miterlimit:10;stroke-dasharray:none;stroke-opacity:1"
       d="m -3.40751e-5,-9.47281e-4 c 0,0 0.8908990751,0 0.9339530751,0 0.038639,0 0.890899,0 0.929538,0 0.043054,0 0.890899,0 0.933953,0 0.038639,0 0.890899,0 0.929538,0 0.043054,0 0.890899,0 0.933953,0 0.043055,0 0.889795,0 0.93285,0 0.039742,0 0.890899,0 0.930641,0 0.041951,0 0.889795,0 0.93285,0 0.043054,0 0.890898,0 0.933953,0 0.038639,0 0.890899,0 0.929538,0 0.043054,0 0.890898,0 0.933953,0 0.03864,0 0.889795,0 0.929538,0 0.04305,0 0.89421,0 0.932849,0 0.04306,0 0.890899,0 0.933953,0 0.03974,0 0.890899,0 0.929538,0 0.04306,0 0.890899,0 0.933953,0 0.04306,0 0.890899,0 0.933954,0 0.03864,0 0.889795,0 0.929537,0 0.04305,0 0.890899,0 0.93285,0.004413171 0.03974,0 0.890899,0 0.933953,0 0.03974,0 0.890899,0 0.929538,0 0.04305,0 0.890899,0 0.933953,0 0.03864,0 0.890899,0 0.929538,0 0.04305,0 0.890899,0 0.933953,0 0.04305,0 0.890899,0.00330987 0.93285,0.00330987 0.03974,0 0.890898,0 0.930641,0 0.04195,0 0.889795,0 0.93285,0 0.04305,0 0.890898,0.00441314 0.933953,0.00441314 0.03864,0 0.890899,0 0.929537,0 0.04305,0 0.890899,0.0044132 0.933954,0.0044132 0.03864,0 0.889795,0.0033099 0.929537,0.0033099 0.04305,0 0.894211,0.0044131 0.933954,0.0044131 0.04195,0 0.889795,0.0033099 0.932849,0.0077231 0.03974,0 0.890899,0.0033099 0.929538,0.0033099 0.04305,0 0.890899,0.007723 0.933953,0.007723 0.04306,0 0.890899,0.0077231 0.933954,0.0077231 0.03864,0 0.889795,0.0121362 0.929537,0.0121362 0.04306,0 0.890899,0.0121362 0.933954,0.0121362 0.04195,0 0.889794,0.0154461 0.932849,0.0154461 0.03974,0 0.890899,0.0154463 0.929538,0.0154463 0.04305,0.004413 0.890898,0.019859 0.933953,0.023169 0.03864,0 0.890899,0.023169 0.929538,0.023169 0.04305,0 0.890898,0.027582 0.933953,0.027582 0.04306,0 0.890899,0.031996 0.932849,0.031996 0.03974,0.00331 0.890899,0.038615 0.930642,0.038615 0.04305,0.004413 0.889795,0.043028 0.932849,0.046338 0.04306,0 0.890899,0.047442 0.933954,0.051855 0.03864,0 0.890899,0.054061 0.929537,0.058474 0.04305,0.00331 0.890899,0.061785 0.933954,0.066198 0.03864,0.00331 0.890899,0.073921 0.932849,0.078334 0.03974,0.00331 0.890899,0.086056 0.930642,0.089366 0.04305,0.004414 0.889795,0.098193 0.932849,0.101503 0.03974,0.007723 0.890899,0.113639 0.929538,0.116949 0.04305,0.004413 0.890899,0.125775 0.933953,0.133499 0.04306,0.003309 0.890899,0.140118 0.933954,0.147841 0.03864,0.00772 0.889794,0.159977 0.929537,0.1677 0.04305,0.00883 0.890899,0.18425 0.933953,0.191973 0.04195,0.00772 0.889795,0.203006 0.93285,0.215142 0.03974,0.00772 0.890899,0.226175 0.929537,0.238311 0.04305,0.011033 0.890899,0.253757 0.933954,0.26479 0.03864,0.016549 0.890899,0.285753 0.929537,0.301199 0.04306,0.012136 0.894211,0.312231 0.933954,0.327677 0.04305,0.01655 0.890899,0.348641 0.933953,0.367397 0.03864,0.015446 0.889795,0.387255 0.929538,0.402701 0.04305,0.019859 0.889795,0.425871 0.932849,0.44904 0.04306,0.019859 0.890899,0.464486 0.933954,0.488758 0.03864,0.023169 0.890898,0.510825 0.929537,0.535097 0.04305,0.027582 0.890899,0.558266 0.933954,0.585848 0.03864,0.027582 0.890898,0.609017 0.932849,0.639909 0.03974,0.031996 0.890899,0.664182 0.930642,0.696178 0.04305,0.030892 0.889794,0.718243 0.932849,0.753548 0.03974,0.035305 0.890899,0.773408 0.929538,0.812023 0.04305,0.039718 0.890898,0.836295 0.933953,0.879324 0.04306,0.038615 0.890899,0.898079 0.933953,0.941108 0.03864,0.04303 0.890899,0.96538 0.929538,1.011718 0.04305,0.04744 0.890899,1.031578 0.933953,1.08233 0.04305,0.04744 0.889795,1.097775 0.93285,1.15294 0.03974,0.05075 0.890899,1.167283 0.929537,1.225757 0.04305,0.05517 0.890899,1.238997 0.933954,1.297472 0.03864,0.06178 0.890899,1.311814 0.929537,1.374702 0.04305,0.06289 0.895315,1.386838 0.933954,1.449725 0.04305,0.0662 0.890899,1.456346 0.933953,1.526956 0.03864,0.07061 0.889795,1.526956 0.929538,1.597567 0.04305,0.07392 0.889795,1.597567 0.932849,1.675901 0.04305,0.07392 0.890899,1.668177 0.933954,1.745408 0.03864,0.07833 0.890898,1.734375 0.929537,1.817121 0.04306,0.08164 0.890899,1.79616 0.933953,1.882217 0.03864,0.08606 0.890899,1.86346 0.933954,1.949517 0.03864,0.09047 0.889795,1.921934 0.929537,2.015714 0.04306,0.08937 0.889795,1.977099 0.93285,2.069776 0.03974,0.09047 0.890899,2.02785 0.929537,2.126043 0.04306,0.09378 0.890899,2.077499 0.933954,2.175692 0.04305,0.09378 0.890899,2.117218 0.933953,2.21872 0.03864,0.09709 0.890899,2.155833 0.929538,2.257336 0.04305,0.101503 0.890899,2.191138 0.933953,2.297054 0.04305,0.101503 0.889795,2.21872 0.93285,2.320223 0.03974,0.105916 0.890898,2.241889 0.929537,2.343392 0.04305,0.105916 0.890899,2.258439 0.933954,2.363251 0.03974,0.105916 0.890898,2.266162 0.929537,2.370975 0.04305,0.102606 0.895315,2.266162 0.933954,2.372078 0.04305,0.104812 0.890898,2.265058 0.933953,2.370974 0.03864,0.104813 0.889795,2.257335 0.929538,2.358838 0.04305,0.105916 0.889794,2.24189 0.932849,2.347806 0.04305,0.101503 0.890899,2.21872 0.933953,2.320223 0.03864,0.101503 0.890899,2.195551 0.929538,2.29264 0.04305,0.101503 0.890899,2.160246 0.933953,2.261749 0.04305,0.09819 0.890899,2.121631 0.933954,2.21872 0.03864,0.09819 0.889791,2.083015 0.929541,2.175692 0.043,0.09378 0.88979,2.032264 0.93285,2.126044 0.0397,0.09378 0.8909,1.980409 0.93064,2.069775 0.0419,0.08937 0.88979,1.926348 0.93285,2.011302 0.043,0.09047 0.8909,1.867873 0.93395,1.95393 0.0386,0.08164 0.8909,1.800572 0.92954,1.882216 0.043,0.08275 0.8909,1.738788 0.93395,1.817122 0.0431,0.07723 0.8898,1.667074 0.93285,1.745408 0.0397,0.07392 0.8909,1.60198 0.92954,1.67259 0.043,0.07392 0.8909,1.530266 0.93395,1.600877 0.0397,0.07061 0.8909,1.457449 0.93395,1.523646 0.0386,0.0662 0.8909,1.386838 0.92954,1.449726 0.0431,0.06178 0.8909,1.316227 0.93396,1.374702 0.0386,0.06178 0.88979,1.245616 0.92953,1.300781 0.0431,0.05847 0.8909,1.171694 0.93285,1.226864 0.0431,0.0541 0.8909,1.10108 0.93396,1.15183 0.0397,0.0507 0.89089,1.03489 0.92953,1.08233 0.0431,0.0463 0.8909,0.96869 0.93396,1.01172 0.0431,0.043 0.8909,0.9025 0.93395,0.94111 0.0386,0.043 0.88979,0.83961 0.92954,0.87932 0.0431,0.0342 0.88979,0.77672 0.93285,0.81203 0.0397,0.0353 0.8909,0.72265 0.93064,0.75354 0.0419,0.032 0.89421,0.66419 0.93285,0.69618 0.0431,0.0265 0.8909,0.60902 0.93395,0.6366 0.0386,0.0265 0.8909,0.56268 0.92954,0.58585 0.043,0.0276 0.8909,0.51524 0.93395,0.53841 0.0431,0.0243 0.8898,0.4689 0.93285,0.48875 0.0397,0.0232 0.8909,0.42588 0.93064,0.44573 0.042,0.0188 0.8898,0.39057 0.93285,0.40602 0.0397,0.0154 0.8909,0.35084 0.93396,0.36739 0.0386,0.0154 0.8909,0.31554 0.92953,0.32768 0.0431,0.0155 0.8909,0.28465 0.93396,0.29679 0.0386,0.0154 0.88979,0.25817 0.92953,0.2692 0.0431,0.0121 0.8909,0.22728 0.93285,0.23831 0.0431,0.0121 0.8909,0.203 0.93396,0.21514 0.0397,0.008 0.8909,0.17984 0.92954,0.18756 0.0431,0.008 0.89089,0.16439 0.93395,0.17212 0.043,0.003 0.8909,0.14011 0.93395,0.14784 0.0386,0.004 0.8898,0.12577 0.92954,0.13349 0.043,0.003 0.8909,0.10923 0.93285,0.11254 0.0397,0.008 0.8909,0.0982 0.93064,0.10592 0.0431,0.004 0.89421,0.0861 0.93285,0.0861 0.043,0.003 0.8909,0.0783 0.93395,0.0783 0.0386,0.003 0.8909,0.0662 0.92954,0.0695 0.0431,0.004 0.8909,0.0552 0.93395,0.0596 0.0431,0.003 0.8909,0.0508 0.93285,0.0508 0.0397,0.003 0.8909,0.0419 0.93065,0.0463 0.0419,0 0.88979,0.0353 0.93284,0.0353 0.0397,0.003 0.8909,0.0309 0.93396,0.0353 0.0386,0 0.8909,0.0276 0.92954,0.0276 0.043,0 0.89089,0.0232 0.93395,0.0232 0.0386,0 0.88979,0.0188 0.92954,0.0188 0.043,0.004 0.8909,0.0199 0.93395,0.0199 0.042,0 0.8898,0.0121 0.93285,0.0154 0.0397,0 0.8909,0.0121 0.92954,0.0121 0.043,0 0.8909,0.008 0.93395,0.008 0.0431,0.004 0.8909,0.0121 0.93395,0.0121 0.0386,0 0.8898,0.008 0.92954,0.008 0.0431,0 0.8909,0.003 0.93395,0.003 0.0386,0 0.8898,0.004 0.92954,0.008 0.0431,0 0.89421,0.004 0.93285,0.004 0.0431,0 0.8909,0 0.93396,0.003 0.0386,0 0.89089,0 0.92953,0 0.0431,0 0.8909,0.004 0.93396,0.004 0.043,0 0.89089,0 0.93285,0 0.0397,0 0.89089,0.004 0.93064,0.004 0.0431,0 0.88979,0 0.93285,0 0.0431,0 0.8909,0 0.93395,0 0.0386,0 0.8909,0.003 0.92954,0.003 0.043,0 0.8909,0 0.93395,0 0.0386,0 0.8909,0 0.92954,0 0.0431,0 0.89421,0 0.93395,0 0.042,0 0.8898,0 0.93285,0 0.0397,0 0.8909,0 0.92954,0 0.043,0 0.8909,0 0.93395,0 0.0431,0 0.8909,0 0.93396,0 0.0386,0 0.88979,0 0.92953,0 0.0431,0 0.8909,0.004 0.93396,0.004 0.0386,0 0.88979,0 0.93285,0 0.0397,0 0.8909,0 0.92953,0 0.0431,0 0.8909,0 0.93396,0 0.0386,0 0.8909,0 0.92954,0 0.043,0 0.89089,0 0.93395,0 0.043,0 0.8909,0 0.93395,0 0.0386,0 0.8898,0 0.92954,0 0.043,0 0.88979,0 0.93285,0 0.043,0 0.8909,0 0.93395,0 0.0386,0 0.8909,0 0.92954,0 0.043,0 0.8909,0 0.93395,0 0.0386,0 0.8909,0 0.92954,0 0.043,0 0.89421,0 0.93395,0 0.0431,0 0.93285,0 0.93285,0"
       transform="matrix(3.538386,0,0,-3.540541,62.445433,451.19587)"
       id="path52" />
  </g>
</svg>
