<?xml version="1.0" encoding="UTF-8" standalone="no"?>
<svg
   xmlns:dc="http://purl.org/dc/elements/1.1/"
   xmlns:cc="http://creativecommons.org/ns#"
   xmlns:rdf="http://www.w3.org/1999/02/22-rdf-syntax-ns#"
   xmlns:svg="http://www.w3.org/2000/svg"
   xmlns="http://www.w3.org/2000/svg"
   xmlns:sodipodi="http://sodipodi.sourceforge.net/DTD/sodipodi-0.dtd"
   xmlns:inkscape="http://www.inkscape.org/namespaces/inkscape"
   width="719pt"
   height="524pt"
   viewBox="0 0 719 524"
   version="1.1"
   id="svg2"
   inkscape:version="0.91 r13725"
   sodipodi:docname="normal-distribution-cumulative-density-function.svg">
  <metadata
     id="metadata86">
    <rdf:RDF>
      <cc:Work
         rdf:about="">
        <dc:format>image/svg+xml</dc:format>
        <dc:type
           rdf:resource="http://purl.org/dc/dcmitype/StillImage" />
      </cc:Work>
    </rdf:RDF>
  </metadata>
  <sodipodi:namedview
     pagecolor="#ffffff"
     bordercolor="#666666"
     borderopacity="1"
     objecttolerance="10"
     gridtolerance="10"
     guidetolerance="10"
     inkscape:pageopacity="0"
     inkscape:pageshadow="2"
     inkscape:window-width="2558"
     inkscape:window-height="1366"
     id="namedview84"
     showgrid="false"
     inkscape:zoom="2.0381948"
     inkscape:cx="1015.4424"
     inkscape:cy="-17.814748"
     inkscape:window-x="0"
     inkscape:window-y="0"
     inkscape:window-maximized="1"
     inkscape:current-layer="svg2" />
  <defs
     id="defs4">
    <clipPath
       id="clip1">
      <path
         d="M 68.761719 7.757812 L 712.5 7.757812 L 712.5 451.199219 L 68.761719 451.199219 Z M 68.761719 7.757812 "
         id="path7" />
    </clipPath>
  </defs>
  <g
     id="surface1">
    <path
       style="fill:none;stroke-width:0.3985;stroke-linecap:butt;stroke-linejoin:miter;stroke:rgb(85.098039%,85.098039%,85.098039%);stroke-opacity:1;stroke-dasharray:2.98883,2.98883;stroke-miterlimit:10;"
       d="M 21.402513 -0.000947281 L 21.402513 125.245862 M 57.078208 -0.000947281 L 57.078208 125.245862 M 128.421871 -0.000947281 L 128.421871 125.245862 M 164.094255 -0.000947281 L 164.094255 125.245862 "
       transform="matrix(3.538386,0,0,-3.540541,62.445433,451.195865)"
       id="path10" />
    <path
       style="fill:none;stroke-width:0.3985;stroke-linecap:butt;stroke-linejoin:miter;stroke:rgb(85.098039%,85.098039%,85.098039%);stroke-opacity:1;stroke-dasharray:2.98883,2.98883;stroke-miterlimit:10;"
       d="M 1.785075 56.928919 L 183.715004 56.928919 M 1.785075 113.863199 L 183.715004 113.863199 "
       transform="matrix(3.538386,0,0,-3.540541,62.445433,451.195865)"
       id="path12" />
    <path
       style="fill:none;stroke:#7f7f7f;stroke-width:0.19925;stroke-linecap:butt;stroke-linejoin:miter;stroke-miterlimit:10;stroke-opacity:1"
       d="m 3.566873,-2.836408 0,2.835460719 m 17.83564,-2.835460719 0,2.835460719 M 39.239257,-2.836408 l 0,2.835460719 M 3.566873,-2.836408 l 0,2.835460719 m 17.83564,-2.835460719 0,2.835460719 M 39.239257,-2.836408 l 0,2.835460719 M 57.078208,-2.836408 l 0,2.835460719 M 74.914952,-2.836408 l 0,2.835460719 M 39.239257,-2.836408 l 0,2.835460719 M 57.078208,-2.836408 l 0,2.835460719 M 74.914952,-2.836408 l 0,2.835460719 m 17.83564,-2.835460719 0,2.835460719 M 110.58623,-2.836408 l 0,2.835460719 M 74.914952,-2.836408 l 0,2.835460719 m 17.83564,-2.835460719 0,2.835460719 M 110.58623,-2.836408 l 0,2.835460719 m 17.83564,-2.835460719 0,2.835460719 m 17.83675,-2.835460719 0,2.835460719 M 110.58623,-2.836408 l 0,2.835460719 m 17.83564,-2.835460719 0,2.835460719 m 17.83675,-2.835460719 0,2.835460719 m 17.83564,-2.835460719 0,2.835460719 M 146.25862,-2.836408 l 0,2.835460719 m 17.83564,-2.835460719 0,2.835460719"
       transform="matrix(3.538386,0,0,-3.540541,62.445433,451.19587)"
       id="path14"
       inkscape:connector-curvature="0"
       sodipodi:nodetypes="cccccccccccccccccccccccccccccccccccccccccccccccc" />
    <path
       style="fill:none;stroke-width:0.19925;stroke-linecap:butt;stroke-linejoin:miter;stroke:rgb(50.196078%,50.196078%,50.196078%);stroke-opacity:1;stroke-miterlimit:10;"
       d="M 21.402513 -4.250828 L 21.402513 -0.000947281 M 57.078208 -4.250828 L 57.078208 -0.000947281 M 128.421871 -4.250828 L 128.421871 -0.000947281 M 164.094255 -4.250828 L 164.094255 -0.000947281 "
       transform="matrix(3.538386,0,0,-3.540541,62.445433,451.195865)"
       id="path16" />
    <path
       style="fill:none;stroke-width:0.19925;stroke-linecap:butt;stroke-linejoin:miter;stroke:rgb(50.196078%,50.196078%,50.196078%);stroke-opacity:1;stroke-miterlimit:10;"
       d="M 89.914509 -0.000947281 L 92.750592 -0.000947281 M 89.914509 28.463986 L 92.750592 28.463986 M 89.914509 -0.000947281 L 92.750592 -0.000947281 M 89.914509 28.463986 L 92.750592 28.463986 M 89.914509 56.928919 L 92.750592 56.928919 M 89.914509 85.393852 L 92.750592 85.393852 M 89.914509 28.463986 L 92.750592 28.463986 M 89.914509 56.928919 L 92.750592 56.928919 M 89.914509 85.393852 L 92.750592 85.393852 M 89.914509 113.863199 L 92.750592 113.863199 M 89.914509 85.393852 L 92.750592 85.393852 M 89.914509 113.863199 L 92.750592 113.863199 "
       transform="matrix(3.538386,0,0,-3.540541,62.445433,451.195865)"
       id="path18" />
    <path
       style="fill:none;stroke-width:0.19925;stroke-linecap:butt;stroke-linejoin:miter;stroke:rgb(50.196078%,50.196078%,50.196078%);stroke-opacity:1;stroke-miterlimit:10;"
       d="M 88.497019 56.928919 L 92.750592 56.928919 M 88.497019 113.863199 L 92.750592 113.863199 "
       transform="matrix(3.538386,0,0,-3.540541,62.445433,451.195865)"
       id="path20" />
    <path
       style="fill:none;stroke-width:0.3985;stroke-linecap:butt;stroke-linejoin:miter;stroke:rgb(0%,0%,0%);stroke-opacity:1;stroke-miterlimit:10;"
       d="M 1.785075 -0.000947281 L 181.723453 -0.000947281 "
       transform="matrix(3.538386,0,0,-3.540541,62.445433,451.195865)"
       id="path22" />
    <path
       style=" stroke:none;fill-rule:nonzero;fill:rgb(0%,0%,0%);fill-opacity:1;"
       d="M 712.5 451.199219 L 701.222656 445.554688 L 705.453125 451.199219 L 701.222656 456.839844 "
       id="path24" />
    <path
       style="fill:none;stroke-width:0.3985;stroke-linecap:butt;stroke-linejoin:miter;stroke:rgb(0%,0%,0%);stroke-opacity:1;stroke-miterlimit:10;"
       d="M 92.750592 -0.000947281 L 92.750592 123.253317 "
       transform="matrix(3.538386,0,0,-3.540541,62.445433,451.195865)"
       id="path26" />
    <path
       style=" stroke:none;fill-rule:nonzero;fill:rgb(0%,0%,0%);fill-opacity:1;"
       d="M 390.632812 7.757812 L 384.992188 19.042969 L 390.632812 14.8125 L 396.273438 19.042969 "
       id="path28" />
    <path
       style=" stroke:none;fill-rule:nonzero;fill:rgb(0%,0%,0%);fill-opacity:1;"
       d="M 138.878906 493.316406 C 139.488281 493.316406 140.152344 493.316406 140.152344 492.59375 C 140.152344 491.929688 139.488281 491.929688 138.878906 491.929688 L 119.804688 491.929688 C 119.199219 491.929688 118.589844 491.929688 118.589844 492.59375 C 118.589844 493.316406 119.199219 493.316406 119.804688 493.316406 Z M 138.878906 493.316406 "
       id="path30" />
    <path
       style=" stroke:none;fill-rule:nonzero;fill:rgb(0%,0%,0%);fill-opacity:1;"
       d="M 153.472656 495.636719 L 153.472656 498.679688 C 153.472656 499.953125 153.363281 500.339844 150.761719 500.339844 L 150.042969 500.339844 L 150.042969 501.445312 C 151.480469 501.335938 153.304688 501.335938 154.800781 501.335938 C 156.292969 501.335938 158.117188 501.335938 159.609375 501.445312 L 159.609375 500.339844 L 158.835938 500.339844 C 156.238281 500.339844 156.179688 499.953125 156.179688 498.679688 L 156.179688 495.636719 L 159.664062 495.636719 L 159.664062 494.53125 L 156.179688 494.53125 L 156.179688 478.488281 C 156.179688 477.769531 156.179688 477.546875 155.574219 477.546875 C 155.296875 477.546875 155.1875 477.546875 154.910156 477.992188 L 144.074219 494.53125 L 144.074219 495.636719 Z M 153.636719 494.53125 L 145.070312 494.53125 L 153.636719 481.367188 Z M 153.636719 494.53125 "
       id="path32" />
    <path
       style=" stroke:none;fill-rule:nonzero;fill:rgb(0%,0%,0%);fill-opacity:1;"
       d="M 265.101562 493.316406 C 265.710938 493.316406 266.371094 493.316406 266.371094 492.59375 C 266.371094 491.929688 265.710938 491.929688 265.101562 491.929688 L 246.027344 491.929688 C 245.417969 491.929688 244.8125 491.929688 244.8125 492.59375 C 244.8125 493.316406 245.417969 493.316406 246.027344 493.316406 Z M 265.101562 493.316406 "
       id="path34" />
    <path
       style=" stroke:none;fill-rule:nonzero;fill:rgb(0%,0%,0%);fill-opacity:1;"
       d="M 273.777344 498.734375 L 277.539062 495.085938 C 283.011719 490.214844 285.113281 488.335938 285.113281 484.796875 C 285.113281 480.757812 281.960938 477.933594 277.648438 477.933594 C 273.667969 477.933594 271.070312 481.199219 271.070312 484.351562 C 271.070312 486.289062 272.835938 486.289062 272.949219 486.289062 C 273.554688 486.289062 274.773438 485.902344 274.773438 484.40625 C 274.773438 483.523438 274.109375 482.582031 272.894531 482.582031 C 272.617188 482.582031 272.5625 482.582031 272.449219 482.636719 C 273.226562 480.3125 275.160156 479.042969 277.207031 479.042969 C 280.414062 479.042969 281.90625 481.917969 281.90625 484.796875 C 281.90625 487.617188 280.191406 490.382812 278.199219 492.59375 L 271.457031 500.117188 C 271.070312 500.507812 271.070312 500.617188 271.070312 501.445312 L 284.171875 501.445312 L 285.113281 495.304688 L 284.28125 495.304688 C 284.0625 496.355469 283.839844 497.90625 283.453125 498.460938 C 283.230469 498.734375 280.910156 498.734375 280.136719 498.734375 Z M 273.777344 498.734375 "
       id="path36" />
    <path
       style=" stroke:none;fill-rule:nonzero;fill:rgb(0%,0%,0%);fill-opacity:1;"
       d="M 512.515625 498.734375 L 516.277344 495.085938 C 521.75 490.214844 523.851562 488.335938 523.851562 484.796875 C 523.851562 480.757812 520.699219 477.933594 516.386719 477.933594 C 512.40625 477.933594 509.808594 481.199219 509.808594 484.351562 C 509.808594 486.289062 511.578125 486.289062 511.6875 486.289062 C 512.296875 486.289062 513.511719 485.902344 513.511719 484.40625 C 513.511719 483.523438 512.847656 482.582031 511.632812 482.582031 C 511.355469 482.582031 511.300781 482.582031 511.1875 482.636719 C 511.964844 480.3125 513.898438 479.042969 515.945312 479.042969 C 519.152344 479.042969 520.644531 481.917969 520.644531 484.796875 C 520.644531 487.617188 518.929688 490.382812 516.9375 492.59375 L 510.195312 500.117188 C 509.808594 500.507812 509.808594 500.617188 509.808594 501.445312 L 522.910156 501.445312 L 523.851562 495.304688 L 523.019531 495.304688 C 522.800781 496.355469 522.578125 497.90625 522.191406 498.460938 C 521.96875 498.734375 519.648438 498.734375 518.875 498.734375 Z M 512.515625 498.734375 "
       id="path38" />
    <path
       style=" stroke:none;fill-rule:nonzero;fill:rgb(0%,0%,0%);fill-opacity:1;"
       d="M 644.652344 495.636719 L 644.652344 498.679688 C 644.652344 499.953125 644.542969 500.339844 641.945312 500.339844 L 641.226562 500.339844 L 641.226562 501.445312 C 642.664062 501.335938 644.488281 501.335938 645.980469 501.335938 C 647.472656 501.335938 649.296875 501.335938 650.789062 501.445312 L 650.789062 500.339844 L 650.015625 500.339844 C 647.417969 500.339844 647.363281 499.953125 647.363281 498.679688 L 647.363281 495.636719 L 650.84375 495.636719 L 650.84375 494.53125 L 647.363281 494.53125 L 647.363281 478.488281 C 647.363281 477.769531 647.363281 477.546875 646.753906 477.546875 C 646.476562 477.546875 646.367188 477.546875 646.089844 477.992188 L 635.253906 494.53125 L 635.253906 495.636719 Z M 644.820312 494.53125 L 636.25 494.53125 L 644.820312 481.367188 Z M 644.820312 494.53125 "
       id="path40" />
    <path
       style=" stroke:none;fill-rule:nonzero;fill:rgb(0%,0%,0%);fill-opacity:1;"
       d="M 334.28125 249.714844 C 334.28125 246.894531 334.117188 244.074219 332.898438 241.472656 C 331.296875 238.042969 328.367188 237.488281 326.929688 237.488281 C 324.773438 237.488281 322.230469 238.429688 320.738281 241.695312 C 319.632812 244.128906 319.464844 246.894531 319.464844 249.714844 C 319.464844 252.371094 319.574219 255.523438 321.070312 258.234375 C 322.5625 261.058594 325.160156 261.777344 326.875 261.777344 C 328.753906 261.777344 331.460938 261.058594 333.011719 257.683594 C 334.117188 255.25 334.28125 252.480469 334.28125 249.714844 Z M 326.875 261 C 325.492188 261 323.390625 260.117188 322.78125 256.742188 C 322.394531 254.640625 322.394531 251.375 322.394531 249.273438 C 322.394531 247.003906 322.394531 244.683594 322.671875 242.800781 C 323.335938 238.597656 325.988281 238.265625 326.875 238.265625 C 328.035156 238.265625 330.355469 238.929688 331.019531 242.414062 C 331.40625 244.40625 331.40625 247.0625 331.40625 249.273438 C 331.40625 251.929688 331.40625 254.308594 331.019531 256.574219 C 330.46875 259.949219 328.476562 261 326.875 261 Z M 326.875 261 "
       id="path42" />
    <path
       style=" stroke:none;fill-rule:nonzero;fill:rgb(0%,0%,0%);fill-opacity:1;"
       d="M 342.453125 259.121094 C 342.453125 258.125 341.625 257.238281 340.628906 257.238281 C 339.578125 257.238281 338.75 258.125 338.75 259.121094 C 338.75 260.171875 339.578125 261 340.628906 261 C 341.625 261 342.453125 260.171875 342.453125 259.121094 Z M 342.453125 259.121094 "
       id="path44" />
    <path
       style=" stroke:none;fill-rule:nonzero;fill:rgb(0%,0%,0%);fill-opacity:1;"
       d="M 361.3125 253.921875 C 361.3125 249.714844 358.4375 246.175781 354.625 246.175781 C 352.964844 246.175781 351.417969 246.730469 350.144531 248 L 350.144531 241.085938 C 350.863281 241.308594 352.027344 241.527344 353.132812 241.527344 C 357.5 241.527344 359.988281 238.320312 359.988281 237.878906 C 359.988281 237.65625 359.875 237.488281 359.601562 237.488281 C 359.601562 237.488281 359.488281 237.488281 359.324219 237.601562 C 358.605469 237.933594 356.890625 238.652344 354.515625 238.652344 C 353.132812 238.652344 351.472656 238.375 349.816406 237.65625 C 349.539062 237.546875 349.484375 237.546875 349.425781 237.546875 C 349.039062 237.546875 349.039062 237.820312 349.039062 238.375 L 349.039062 248.832031 C 349.039062 249.441406 349.039062 249.714844 349.539062 249.714844 C 349.816406 249.714844 349.871094 249.660156 350.035156 249.441406 C 350.421875 248.886719 351.695312 246.949219 354.570312 246.949219 C 356.394531 246.949219 357.277344 248.554688 357.554688 249.21875 C 358.109375 250.546875 358.21875 251.875 358.21875 253.644531 C 358.21875 254.917969 358.21875 257.019531 357.332031 258.511719 C 356.503906 259.894531 355.175781 260.78125 353.574219 260.78125 C 351.03125 260.78125 348.984375 258.898438 348.378906 256.851562 C 348.488281 256.851562 348.597656 256.90625 348.984375 256.90625 C 350.144531 256.90625 350.753906 256.023438 350.753906 255.191406 C 350.753906 254.308594 350.144531 253.421875 348.984375 253.421875 C 348.488281 253.421875 347.269531 253.699219 347.269531 255.304688 C 347.269531 258.347656 349.703125 261.777344 353.628906 261.777344 C 357.71875 261.777344 361.3125 258.402344 361.3125 253.921875 Z M 361.3125 253.921875 "
       id="path46" />
    <path
       style=" stroke:none;fill-rule:nonzero;fill:rgb(0%,0%,0%);fill-opacity:1;"
       d="M 355.894531 36.867188 C 355.894531 35.984375 355.894531 35.925781 355.066406 35.925781 C 352.855469 38.195312 349.757812 38.195312 348.652344 38.195312 L 348.652344 39.300781 C 349.371094 39.300781 351.417969 39.300781 353.242188 38.359375 L 353.242188 56.671875 C 353.242188 57.945312 353.132812 58.332031 349.980469 58.332031 L 348.875 58.332031 L 348.875 59.4375 C 350.089844 59.328125 353.132812 59.328125 354.570312 59.328125 C 355.953125 59.328125 359.046875 59.328125 360.265625 59.4375 L 360.265625 58.332031 L 359.15625 58.332031 C 355.953125 58.332031 355.894531 57.945312 355.894531 56.671875 Z M 355.894531 36.867188 "
       id="path48" />
    <g
       clip-path="url(#clip1)"
       clip-rule="nonzero"
       id="g50">
      <path
         style="fill:none;stroke-width:1.19553;stroke-linecap:butt;stroke-linejoin:miter;stroke:rgb(69.803922%,0%,0%);stroke-opacity:1;stroke-miterlimit:10;"
         d="M -0.0000340751 -0.000947281 C -0.0000340751 -0.000947281 0.890865 -0.000947281 0.933919 -0.000947281 C 0.972558 -0.000947281 1.824818 -0.000947281 1.863457 -0.000947281 C 1.906511 -0.000947281 2.754356 -0.000947281 2.79741 -0.000947281 C 2.836049 -0.000947281 3.688309 -0.000947281 3.726948 -0.000947281 C 3.770002 -0.000947281 4.617847 -0.000947281 4.660901 -0.000947281 C 4.703956 -0.000947281 5.550696 -0.000947281 5.593751 -0.000947281 C 5.633493 -0.000947281 6.48465 -0.000947281 6.524392 -0.000947281 C 6.566343 -0.000947281 7.414187 -0.000947281 7.457242 -0.000947281 C 7.500296 -0.000947281 8.34814 -0.000947281 8.391195 -0.000947281 C 8.429834 -0.000947281 9.282094 -0.000947281 9.320733 -0.000947281 C 9.363787 -0.000947281 10.211631 -0.000947281 10.254686 -0.000947281 C 10.293325 -0.000947281 11.144481 -0.000947281 11.184224 -0.000947281 C 11.227278 -0.000947281 12.078434 -0.000947281 12.117073 -0.000947281 C 12.160128 -0.000947281 13.007972 -0.000947281 13.051026 -0.000947281 C 13.090769 -0.000947281 13.941925 -0.000947281 13.980564 -0.000947281 C 14.023619 -0.000947281 14.871463 -0.000947281 14.914517 -0.000947281 C 14.957572 -0.000947281 15.805416 -0.000947281 15.848471 -0.000947281 C 15.88711 -0.000947281 16.738266 -0.000947281 16.778008 -0.000947281 C 16.821063 -0.000947281 17.668907 -0.000947281 17.710858 0.00346589 C 17.7506 0.00346589 18.601757 0.00346589 18.644811 0.00346589 C 18.684554 0.00346589 19.53571 0.00346589 19.574349 0.00346589 C 19.617403 0.00346589 20.465248 0.00346589 20.508302 0.00346589 C 20.546941 0.00346589 21.399201 0.00346589 21.43784 0.00346589 C 21.480894 0.00346589 22.328739 0.00346589 22.371793 0.00346589 C 22.414848 0.00346589 23.262692 0.00677576 23.304643 0.00677576 C 23.344385 0.00677576 24.195541 0.00677576 24.235284 0.00677576 C 24.277235 0.00677576 25.125079 0.00677576 25.168134 0.00677576 C 25.211188 0.00677576 26.059032 0.0111889 26.102087 0.0111889 C 26.140726 0.0111889 26.992986 0.0111889 27.031624 0.0111889 C 27.074679 0.0111889 27.922523 0.0156021 27.965578 0.0156021 C 28.004217 0.0156021 28.855373 0.018912 28.895115 0.018912 C 28.93817 0.018912 29.789326 0.0233251 29.829069 0.0233251 C 29.871019 0.0233251 30.718864 0.026635 30.761918 0.0310482 C 30.801661 0.0310482 31.652817 0.0343581 31.691456 0.0343581 C 31.73451 0.0343581 32.582355 0.0420811 32.625409 0.0420811 C 32.668464 0.0420811 33.516308 0.0498042 33.559363 0.0498042 C 33.598001 0.0498042 34.449158 0.0619404 34.4889 0.0619404 C 34.531955 0.0619404 35.379799 0.0740766 35.422854 0.0740766 C 35.464804 0.0740766 36.312648 0.0895227 36.355703 0.0895227 C 36.395446 0.0895227 37.246602 0.104969 37.285241 0.104969 C 37.328295 0.109382 38.176139 0.124828 38.219194 0.128138 C 38.257833 0.128138 39.110093 0.151307 39.148732 0.151307 C 39.191786 0.151307 40.03963 0.178889 40.082685 0.178889 C 40.12574 0.178889 40.973584 0.210885 41.015534 0.210885 C 41.055277 0.214195 41.906433 0.2495 41.946176 0.2495 C 41.989231 0.253913 42.835971 0.292528 42.879025 0.295838 C 42.92208 0.295838 43.769924 0.34328 43.812979 0.347693 C 43.851618 0.347693 44.703878 0.401754 44.742516 0.406167 C 44.785571 0.409477 45.633415 0.467952 45.67647 0.472365 C 45.715108 0.475675 46.567369 0.546286 46.609319 0.550699 C 46.649062 0.554009 47.500218 0.636755 47.539961 0.640065 C 47.583015 0.644479 48.429756 0.738258 48.47281 0.741568 C 48.512553 0.749291 49.363709 0.855207 49.402348 0.858517 C 49.445402 0.86293 50.293247 0.984292 50.336301 0.992016 C 50.379356 0.995325 51.2272 1.132134 51.270255 1.139857 C 51.308893 1.14758 52.160049 1.299834 52.199792 1.307557 C 52.242847 1.316383 53.090691 1.491807 53.133745 1.49953 C 53.175696 1.507253 54.02354 1.702536 54.066595 1.714672 C 54.106338 1.722395 54.957494 1.940847 54.996132 1.952983 C 55.039187 1.964016 55.887031 2.20674 55.930086 2.217773 C 55.968725 2.234322 56.820985 2.503526 56.859623 2.518972 C 56.902678 2.531108 57.753834 2.831203 57.793577 2.846649 C 57.836631 2.863199 58.684476 3.19529 58.72753 3.214046 C 58.766169 3.229492 59.617325 3.601301 59.657068 3.616747 C 59.700122 3.636606 60.546863 4.042618 60.589917 4.065787 C 60.632972 4.085646 61.480816 4.530273 61.523871 4.554545 C 61.562509 4.577714 62.414769 5.06537 62.453408 5.089642 C 62.496463 5.117224 63.344307 5.647908 63.387362 5.67549 C 63.426 5.703072 64.27826 6.284507 64.320211 6.315399 C 64.359954 6.347395 65.21111 6.979581 65.250853 7.011577 C 65.293907 7.042469 66.140647 7.72982 66.183702 7.765125 C 66.223445 7.80043 67.074601 8.538533 67.11324 8.577148 C 67.156294 8.616866 68.004138 9.413443 68.047193 9.456472 C 68.090248 9.495087 68.938092 10.354551 68.981146 10.39758 C 69.019785 10.440608 69.872045 11.36296 69.910684 11.409298 C 69.953739 11.45674 70.801583 12.440876 70.844637 12.491628 C 70.887692 12.539069 71.734432 13.589403 71.777487 13.644568 C 71.817229 13.695319 72.668386 14.811851 72.707024 14.870325 C 72.750079 14.92549 73.597923 16.109322 73.640978 16.167797 C 73.679616 16.229581 74.531877 17.479611 74.570515 17.542499 C 74.61357 17.605386 75.46583 18.929337 75.504469 18.992224 C 75.547523 19.058422 76.395368 20.44857 76.438422 20.51918 C 76.477061 20.589791 77.328217 22.046136 77.36796 22.116747 C 77.411014 22.190668 78.257755 23.714314 78.300809 23.792648 C 78.343864 23.866568 79.191708 25.460825 79.234763 25.538056 C 79.273401 25.616389 80.125661 27.272431 80.1643 27.355177 C 80.207355 27.436821 81.055199 29.151337 81.098253 29.237394 C 81.136892 29.32345 81.989152 31.100854 82.032207 31.186911 C 82.070846 31.27738 82.922002 33.108845 82.961744 33.202625 C 83.004799 33.291992 83.851539 35.179724 83.894594 35.272401 C 83.934337 35.362871 84.785493 37.300251 84.824131 37.398444 C 84.867186 37.492224 85.71503 39.475943 85.758085 39.574136 C 85.801139 39.667916 86.648984 41.691354 86.692038 41.792856 C 86.730677 41.889946 87.582937 43.948689 87.621576 44.050192 C 87.66463 44.151695 88.512475 46.24133 88.555529 46.347246 C 88.598584 46.448749 89.445324 48.565966 89.488379 48.667469 C 89.528121 48.773385 90.379277 50.909358 90.417916 51.010861 C 90.460971 51.116777 91.308815 53.2693 91.35187 53.374112 C 91.391612 53.480028 92.242768 55.640274 92.281407 55.745087 C 92.324462 55.847693 93.176722 58.011249 93.215361 58.117165 C 93.258415 58.221977 94.106259 60.382223 94.149314 60.488139 C 94.187953 60.592952 95.039109 62.745474 95.078852 62.846977 C 95.121906 62.952893 95.968646 65.088867 96.011701 65.194783 C 96.054756 65.296286 96.9026 67.413503 96.945654 67.515006 C 96.984293 67.616509 97.836553 69.710557 97.875192 69.807646 C 97.918247 69.909149 98.766091 71.967892 98.809145 72.069395 C 98.8522 72.167588 99.700044 74.191026 99.743099 74.288115 C 99.781737 74.386308 100.632894 76.37113 100.672636 76.463807 C 100.715691 76.557587 101.562431 78.496071 101.605486 78.589851 C 101.645228 78.68363 102.496385 80.57026 102.536127 80.659626 C 102.578078 80.748993 103.425922 82.585974 103.468977 82.670928 C 103.512031 82.761398 104.359876 84.538801 104.40293 84.624858 C 104.441569 84.706501 105.293829 86.42543 105.332468 86.507074 C 105.375522 86.589821 106.223366 88.245862 106.266421 88.324196 C 106.309476 88.401426 107.156216 89.99127 107.199271 90.069604 C 107.239013 90.143524 108.090169 91.671584 108.128808 91.742194 C 108.171863 91.816115 109.019707 93.27246 109.062761 93.343071 C 109.102504 93.413682 109.95366 94.80052 109.996715 94.866717 C 110.035354 94.932915 110.887614 96.253555 110.926252 96.316443 C 110.969307 96.378227 111.817151 97.63267 111.860206 97.691145 C 111.898845 97.752929 112.750001 98.936761 112.789743 98.991926 C 112.832798 99.050401 113.680642 100.163622 113.722593 100.218787 C 113.765647 100.272848 114.613492 101.319872 114.656546 101.370624 C 114.696289 101.421375 115.547445 102.405511 115.586084 102.452953 C 115.629138 102.499291 116.476983 103.421643 116.520037 103.464672 C 116.563092 103.5077 117.410936 104.367165 117.453991 104.40578 C 117.492629 104.448808 118.343785 105.245385 118.383528 105.285104 C 118.426583 105.319306 119.273323 106.061821 119.316378 106.097126 C 119.35612 106.132432 120.207276 106.819783 120.247019 106.850675 C 120.28897 106.88267 121.14123 107.514857 121.179869 107.546852 C 121.222923 107.573331 122.070767 108.155869 122.113822 108.183452 C 122.152461 108.209931 123.004721 108.74613 123.04336 108.7693 C 123.086414 108.796882 123.934258 109.284537 123.977313 109.307706 C 124.020368 109.331979 124.867108 109.776605 124.910162 109.796464 C 124.949905 109.819634 125.801061 110.222335 125.840804 110.242194 C 125.882755 110.26095 126.730599 110.63276 126.773653 110.648206 C 126.813396 110.663652 127.664552 110.999053 127.707607 111.015602 C 127.746245 111.031048 128.598506 111.331144 128.637144 111.34328 C 128.680199 111.358726 129.528043 111.627929 129.571098 111.640065 C 129.609736 111.655511 130.460893 111.898236 130.500635 111.909269 C 130.54369 111.921405 131.391534 112.136547 131.433485 112.14758 C 131.476539 112.159716 132.324384 112.350585 132.367438 112.362722 C 132.407181 112.370445 133.258337 112.542558 133.296976 112.550281 C 133.34003 112.558004 134.187874 112.714672 134.230929 112.722395 C 134.273984 112.725705 135.121828 112.862513 135.164882 112.870236 C 135.203521 112.874649 136.054677 112.996011 136.09442 113.003734 C 136.137475 113.007044 136.985319 113.11296 137.027269 113.11627 C 137.067012 113.123993 137.918168 113.214463 137.957911 113.222186 C 138.000966 113.226599 138.852122 113.308243 138.89076 113.308243 C 138.933815 113.311553 139.781659 113.386577 139.824714 113.386577 C 139.863353 113.389886 140.715613 113.452774 140.754251 113.456084 C 140.797306 113.460497 141.64515 113.511249 141.688205 113.515662 C 141.731259 113.518972 142.579104 113.566413 142.621054 113.566413 C 142.660797 113.569723 143.511953 113.608338 143.551696 113.612751 C 143.593646 113.612751 144.441491 113.648057 144.484545 113.648057 C 144.524288 113.651367 145.375444 113.678949 145.418499 113.683362 C 145.457137 113.683362 146.309397 113.710944 146.348036 113.710944 C 146.391091 113.710944 147.238935 113.734114 147.28199 113.734114 C 147.320628 113.734114 148.171784 113.75287 148.211527 113.75287 C 148.254582 113.757283 149.102426 113.772729 149.145481 113.772729 C 149.187431 113.772729 150.035275 113.784865 150.07833 113.788175 C 150.118073 113.788175 150.969229 113.800311 151.007868 113.800311 C 151.050922 113.800311 151.898766 113.808034 151.941821 113.808034 C 151.984876 113.812447 152.83272 113.82017 152.875774 113.82017 C 152.914413 113.82017 153.765569 113.827893 153.805312 113.827893 C 153.848366 113.827893 154.696211 113.831203 154.739265 113.831203 C 154.777904 113.831203 155.62906 113.835616 155.668803 113.838926 C 155.711857 113.838926 156.563014 113.843339 156.601652 113.843339 C 156.644707 113.843339 157.492551 113.843339 157.535606 113.846649 C 157.574244 113.846649 158.426505 113.846649 158.465143 113.846649 C 158.508198 113.846649 159.356042 113.851062 159.399097 113.851062 C 159.442151 113.851062 160.289995 113.851062 160.331946 113.851062 C 160.371689 113.851062 161.222845 113.855476 161.262588 113.855476 C 161.305642 113.855476 162.152382 113.855476 162.195437 113.855476 C 162.238492 113.855476 163.086336 113.855476 163.12939 113.855476 C 163.168029 113.855476 164.020289 113.858786 164.058928 113.858786 C 164.101983 113.858786 164.949827 113.858786 164.992881 113.858786 C 165.03152 113.858786 165.88378 113.858786 165.922419 113.858786 C 165.965474 113.858786 166.81663 113.858786 166.856372 113.858786 C 166.898323 113.858786 167.746167 113.858786 167.789222 113.858786 C 167.828965 113.858786 168.680121 113.858786 168.718759 113.858786 C 168.761814 113.858786 169.609658 113.858786 169.652713 113.858786 C 169.695767 113.858786 170.543612 113.858786 170.586666 113.858786 C 170.625305 113.858786 171.476461 113.858786 171.516204 113.858786 C 171.559258 113.858786 172.407103 113.863199 172.450157 113.863199 C 172.488796 113.863199 173.339952 113.863199 173.383007 113.863199 C 173.422749 113.863199 174.273905 113.863199 174.312544 113.863199 C 174.355599 113.863199 175.203443 113.863199 175.246498 113.863199 C 175.285136 113.863199 176.137396 113.863199 176.176035 113.863199 C 176.21909 113.863199 177.066934 113.863199 177.109989 113.863199 C 177.153043 113.863199 178.000887 113.863199 178.043942 113.863199 C 178.082581 113.863199 178.933737 113.863199 178.973479 113.863199 C 179.016534 113.863199 179.863274 113.863199 179.906329 113.863199 C 179.949384 113.863199 180.797228 113.863199 180.840282 113.863199 C 180.878921 113.863199 181.731181 113.863199 181.76982 113.863199 C 181.812874 113.863199 182.660719 113.863199 182.703773 113.863199 C 182.742412 113.863199 183.594672 113.863199 183.633311 113.863199 C 183.676365 113.863199 184.527522 113.863199 184.567264 113.863199 C 184.610319 113.863199 185.500114 113.863199 185.500114 113.863199 "
         transform="matrix(3.538386,0,0,-3.540541,62.445433,451.195865)"
         id="path52" />
    </g>
    <path
       style=" stroke:none;fill-rule:nonzero;fill:rgb(0%,0%,0%);fill-opacity:1;"
       d="M 392.328125 468.167969 C 392.550781 467.28125 393.378906 464.019531 395.8125 464.019531 C 395.980469 464.019531 396.863281 464.019531 397.582031 464.460938 C 396.585938 464.683594 395.921875 465.511719 395.921875 466.398438 C 395.921875 466.949219 396.308594 467.613281 397.25 467.613281 C 398.023438 467.613281 399.128906 467.003906 399.128906 465.566406 C 399.128906 463.742188 397.085938 463.242188 395.867188 463.242188 C 393.824219 463.242188 392.605469 465.125 392.164062 465.898438 C 391.277344 463.574219 389.398438 463.242188 388.347656 463.242188 C 384.699219 463.242188 382.65625 467.78125 382.65625 468.664062 C 382.65625 469.050781 383.042969 469.050781 383.097656 469.050781 C 383.375 469.050781 383.484375 468.941406 383.539062 468.664062 C 384.753906 464.902344 387.078125 464.019531 388.292969 464.019531 C 388.957031 464.019531 390.171875 464.351562 390.171875 466.398438 C 390.171875 467.503906 389.566406 469.828125 388.292969 474.804688 C 387.742188 476.964844 386.46875 478.457031 384.921875 478.457031 C 384.699219 478.457031 383.925781 478.457031 383.152344 478.015625 C 384.035156 477.792969 384.808594 477.074219 384.808594 476.078125 C 384.808594 475.136719 384.035156 474.859375 383.539062 474.859375 C 382.433594 474.859375 381.605469 475.746094 381.605469 476.90625 C 381.605469 478.511719 383.316406 479.230469 384.867188 479.230469 C 387.242188 479.230469 388.515625 476.742188 388.570312 476.574219 C 389.011719 477.847656 390.285156 479.230469 392.386719 479.230469 C 396.035156 479.230469 398.023438 474.695312 398.023438 473.808594 C 398.023438 473.421875 397.746094 473.421875 397.636719 473.421875 C 397.304688 473.421875 397.25 473.589844 397.140625 473.808594 C 395.980469 477.625 393.601562 478.457031 392.496094 478.457031 C 391.113281 478.457031 390.558594 477.351562 390.558594 476.132812 C 390.558594 475.359375 390.726562 474.585938 391.113281 473.035156 Z M 392.328125 468.167969 "
       id="path54" />
    <path
       style=" stroke:none;fill-rule:nonzero;fill:rgb(0%,0%,0%);fill-opacity:1;"
       d="M 40.484375 281.050781 C 40.042969 275.628906 36.78125 271.699219 33.1875 271.699219 C 29.535156 271.699219 26.328125 275.683594 25.886719 281.050781 L 23.953125 281.050781 C 22.738281 281.050781 22.238281 281.050781 22.238281 277.730469 L 22.238281 276.570312 L 21.132812 276.570312 C 21.242188 277.839844 21.242188 281.050781 21.242188 282.542969 C 21.242188 283.980469 21.242188 287.246094 21.132812 288.519531 L 22.238281 288.519531 L 22.238281 287.355469 C 22.238281 283.980469 22.679688 283.980469 23.953125 283.980469 L 25.886719 283.980469 C 26.441406 289.402344 29.703125 293.164062 33.1875 293.164062 C 36.835938 293.164062 39.929688 289.238281 40.484375 283.980469 L 42.472656 283.980469 C 43.636719 283.980469 44.132812 283.980469 44.132812 287.355469 L 44.132812 288.519531 L 45.238281 288.519531 C 45.128906 287.246094 45.128906 283.980469 45.128906 282.542969 C 45.128906 281.105469 45.128906 277.839844 45.238281 276.570312 L 44.132812 276.570312 L 44.132812 277.730469 C 44.132812 281.050781 43.691406 281.050781 42.472656 281.050781 Z M 39.652344 283.980469 C 38.992188 289.015625 35.398438 289.625 33.1875 289.625 C 31.359375 289.625 27.4375 289.292969 26.71875 283.980469 Z M 26.660156 281.050781 C 27.269531 276.183594 30.476562 275.242188 33.1875 275.242188 C 35.285156 275.242188 39.046875 275.738281 39.710938 281.050781 Z M 26.660156 281.050781 "
       id="path56" />
    <path
       style=" stroke:none;fill-rule:nonzero;fill:rgb(0%,0%,0%);fill-opacity:1;"
       d="M 55.484375 268.355469 C 55.816406 268.464844 55.984375 268.464844 55.984375 268.464844 C 56.535156 268.464844 56.757812 268.023438 56.757812 267.636719 C 56.757812 266.695312 55.984375 266.53125 55.539062 266.417969 C 55.429688 266.363281 53.441406 265.867188 51.0625 265.3125 C 51.558594 264.539062 51.726562 263.542969 51.726562 262.65625 C 51.726562 260.554688 50.011719 259.171875 49.957031 259.117188 C 51.671875 258.617188 51.726562 256.902344 51.726562 256.570312 C 51.726562 255.6875 51.226562 255.078125 50.453125 254.582031 C 49.460938 254.082031 48.078125 253.75 47.964844 253.75 C 47.632812 253.75 47.632812 254.082031 47.632812 254.136719 C 47.632812 254.46875 47.746094 254.523438 48.410156 254.691406 C 49.625 254.96875 51.0625 255.464844 51.0625 256.460938 C 51.0625 257.125 50.507812 257.292969 49.847656 257.292969 C 49.460938 257.292969 48.519531 257.125 47.910156 256.902344 C 47.246094 256.738281 46.253906 256.515625 45.699219 256.40625 L 43.488281 255.796875 C 42.878906 255.6875 41.773438 255.410156 41.664062 255.410156 C 41.167969 255.410156 40.890625 255.796875 40.890625 256.183594 C 40.890625 256.460938 41 256.960938 41.441406 257.234375 C 41.609375 257.292969 42.382812 257.511719 42.878906 257.621094 L 44.925781 258.121094 L 48.023438 258.894531 C 48.628906 259.0625 48.683594 259.0625 49.015625 259.28125 C 50.121094 260.058594 51.0625 261.164062 51.0625 262.546875 C 51.0625 264.59375 49.292969 264.59375 48.851562 264.59375 C 48.242188 264.59375 47.910156 264.484375 46.585938 264.152344 C 45.476562 263.929688 45.3125 263.875 44.371094 263.597656 L 42.992188 263.265625 C 42.4375 263.15625 41.496094 262.878906 41.441406 262.878906 C 41 262.878906 40.613281 263.265625 40.613281 263.761719 C 40.613281 264.648438 41.496094 264.871094 41.773438 264.925781 Z M 55.484375 268.355469 "
       id="path58" />
    <path
       style=" stroke:none;fill-rule:nonzero;fill:rgb(0%,0%,0%);fill-opacity:1;"
       d="M 51.117188 247.332031 C 52.445312 247.332031 54.046875 247.554688 55.597656 249.269531 C 55.707031 249.324219 55.816406 249.433594 55.925781 249.433594 C 56.09375 249.433594 56.257812 249.214844 56.257812 249.101562 C 56.257812 248.714844 54.269531 246.613281 51.339844 246.613281 C 49.847656 246.613281 48.683594 247.222656 48.683594 248.382812 C 48.683594 249.15625 49.292969 249.765625 50.066406 249.765625 C 50.839844 249.765625 51.503906 249.214844 51.503906 248.328125 C 51.503906 247.71875 51.117188 247.332031 51.117188 247.332031 Z M 51.117188 247.332031 "
       id="path60" />
    <path
       style=" stroke:none;fill-rule:nonzero;fill:rgb(0%,0%,0%);fill-opacity:1;"
       d="M 42.546875 229.714844 C 42.546875 229.328125 42.546875 229.050781 42.382812 228.832031 C 42.105469 228.5 41.71875 228.386719 41.554688 228.386719 C 40.890625 228.386719 40.890625 229.050781 40.890625 229.496094 L 40.890625 235.800781 C 40.890625 239.730469 44.757812 242.714844 47.746094 242.714844 C 50.011719 242.714844 51.726562 241 51.726562 238.457031 C 51.726562 235.359375 48.960938 231.816406 45.148438 231.816406 C 44.757812 231.816406 43.652344 231.816406 42.546875 232.539062 Z M 51.0625 238.457031 C 51.0625 239.785156 50.179688 240.890625 48.410156 240.890625 C 47.691406 240.890625 42.546875 240.449219 42.546875 236.1875 C 42.546875 234.972656 43.046875 233.644531 44.871094 233.644531 C 45.367188 233.644531 47.578125 233.863281 49.238281 235.082031 C 50.566406 236.132812 51.0625 237.515625 51.0625 238.457031 Z M 51.0625 238.457031 "
       id="path62" />
    <path
       style=" stroke:none;fill-rule:nonzero;fill:rgb(0%,0%,0%);fill-opacity:1;"
       d="M 41.027344 216.523438 L 41.027344 217.296875 C 41.359375 217.296875 42.464844 217.519531 42.632812 217.796875 C 42.742188 217.90625 42.742188 219.398438 42.742188 219.675781 L 42.742188 223.105469 C 41.914062 221.945312 40.917969 220.671875 40.199219 219.621094 C 39.09375 218.015625 38.097656 216.523438 36.21875 216.523438 C 33.953125 216.523438 32.734375 218.679688 32.734375 221.171875 C 32.734375 223.550781 34.0625 225.320312 35.832031 225.320312 C 36.714844 225.320312 36.882812 224.546875 36.882812 224.269531 C 36.882812 223.824219 36.550781 223.273438 35.832031 223.273438 C 35.222656 223.273438 34.835938 223.714844 34.835938 224.269531 C 34.007812 223.769531 33.507812 222.71875 33.507812 221.558594 C 33.507812 219.84375 34.503906 218.40625 36.21875 218.40625 C 37.710938 218.40625 38.871094 219.457031 39.976562 220.785156 L 43.628906 225.097656 C 43.792969 225.265625 43.792969 225.320312 43.902344 225.320312 L 44.457031 225.320312 L 44.457031 217.132812 Z M 41.027344 216.523438 "
       id="path64" />
    <path
       style=" stroke:none;fill-rule:nonzero;fill:rgb(0%,0%,0%);fill-opacity:1;"
       d="M 53.695312 199.71875 C 53.585938 199.71875 53.53125 199.71875 52.921875 200.328125 C 48.5 204.699219 41.808594 205.859375 36.390625 205.859375 C 30.253906 205.859375 24.117188 204.53125 19.75 200.160156 C 19.308594 199.71875 19.253906 199.71875 19.144531 199.71875 C 18.867188 199.71875 18.753906 199.828125 18.753906 200.050781 C 18.753906 200.4375 21.1875 203.589844 25.667969 205.695312 C 29.535156 207.464844 33.460938 207.90625 36.390625 207.90625 C 39.15625 207.90625 43.414062 207.519531 47.449219 205.582031 C 51.761719 203.425781 54.085938 200.4375 54.085938 200.050781 C 54.085938 199.828125 53.972656 199.71875 53.695312 199.71875 Z M 53.695312 199.71875 "
       id="path66" />
    <path
       style=" stroke:none;fill-rule:nonzero;fill:rgb(0%,0%,0%);fill-opacity:1;"
       d="M 34.566406 185.890625 C 33.683594 185.671875 30.421875 184.839844 30.421875 182.40625 C 30.421875 182.242188 30.421875 181.355469 30.863281 180.636719 C 31.085938 181.632812 31.914062 182.296875 32.796875 182.296875 C 33.351562 182.296875 34.015625 181.910156 34.015625 180.96875 C 34.015625 180.195312 33.40625 179.085938 31.96875 179.085938 C 30.144531 179.085938 29.648438 181.132812 29.648438 182.351562 C 29.648438 184.398438 31.527344 185.617188 32.300781 186.058594 C 29.980469 186.941406 29.648438 188.824219 29.648438 189.875 C 29.648438 193.527344 34.179688 195.574219 35.066406 195.574219 C 35.453125 195.574219 35.453125 195.1875 35.453125 195.128906 C 35.453125 194.855469 35.34375 194.742188 35.066406 194.6875 C 31.304688 193.472656 30.421875 191.148438 30.421875 189.929688 C 30.421875 189.265625 30.753906 188.050781 32.796875 188.050781 C 33.90625 188.050781 36.226562 188.65625 41.203125 189.929688 C 43.359375 190.484375 44.851562 191.757812 44.851562 193.304688 C 44.851562 193.527344 44.851562 194.300781 44.410156 195.074219 C 44.1875 194.191406 43.46875 193.414062 42.472656 193.414062 C 41.535156 193.414062 41.257812 194.191406 41.257812 194.6875 C 41.257812 195.792969 42.140625 196.625 43.304688 196.625 C 44.90625 196.625 45.625 194.910156 45.625 193.359375 C 45.625 190.980469 43.136719 189.710938 42.972656 189.652344 C 44.242188 189.210938 45.625 187.9375 45.625 185.835938 C 45.625 182.1875 41.089844 180.195312 40.207031 180.195312 C 39.820312 180.195312 39.820312 180.46875 39.820312 180.582031 C 39.820312 180.914062 39.984375 180.96875 40.207031 181.078125 C 44.023438 182.242188 44.851562 184.621094 44.851562 185.726562 C 44.851562 187.109375 43.746094 187.664062 42.527344 187.664062 C 41.753906 187.664062 40.980469 187.496094 39.433594 187.109375 Z M 34.566406 185.890625 "
       id="path68" />
    <path
       style=" stroke:none;fill-rule:nonzero;fill:rgb(0%,0%,0%);fill-opacity:1;"
       d="M 36.390625 167.335938 C 33.683594 167.335938 29.425781 167.722656 25.390625 169.660156 C 21.078125 171.761719 18.753906 174.804688 18.753906 175.136719 C 18.753906 175.359375 18.921875 175.523438 19.144531 175.523438 C 19.253906 175.523438 19.308594 175.523438 19.972656 174.859375 C 23.453125 171.375 29.039062 169.382812 36.390625 169.382812 C 42.472656 169.382812 48.667969 170.65625 53.089844 175.027344 C 53.53125 175.523438 53.585938 175.523438 53.695312 175.523438 C 53.917969 175.523438 54.085938 175.359375 54.085938 175.136719 C 54.085938 174.804688 51.652344 171.597656 47.171875 169.550781 C 43.304688 167.722656 39.378906 167.335938 36.390625 167.335938 Z M 36.390625 167.335938 "
       id="path70" />
    <path
       style="fill-rule:nonzero;fill:rgb(100%,100%,100%);fill-opacity:1;stroke-width:0.3985;stroke-linecap:butt;stroke-linejoin:miter;stroke:rgb(0%,0%,0%);stroke-opacity:1;stroke-miterlimit:10;"
       d="M 7.441786 103.718429 L 64.390865 103.718429 L 64.390865 121.292767 L 7.441786 121.292767 Z M 7.441786 103.718429 "
       transform="matrix(3.538386,0,0,-3.540541,62.445433,451.195865)"
       id="path72" />
    <path
       style="fill:none;stroke-width:1.19553;stroke-linecap:butt;stroke-linejoin:miter;stroke:rgb(69.803922%,0%,0%);stroke-opacity:1;stroke-miterlimit:10;"
       d="M 0.000460709 0.00194299 C 0.000460709 0.00194299 8.125635 0.00194299 8.504294 0.00194299 C 8.879642 0.00194299 17.008128 0.00194299 17.008128 0.00194299 "
       transform="matrix(3.538386,0,0,-3.540541,101.463214,52.877973)"
       id="path74" />
    <path
       style=" stroke:none;fill-rule:nonzero;fill:rgb(0%,0%,0%);fill-opacity:1;"
       d="M 189.058594 51.421875 C 189.554688 51.421875 190.824219 51.421875 190.824219 50.207031 C 190.824219 49.375 190.050781 49.375 189.445312 49.375 L 181.371094 49.375 C 176.0625 49.375 172.140625 55.183594 172.140625 59.390625 C 172.140625 62.488281 174.238281 64.976562 177.445312 64.976562 C 181.59375 64.976562 186.292969 60.71875 186.292969 55.296875 C 186.292969 54.6875 186.292969 52.972656 185.1875 51.421875 Z M 177.5 64.203125 C 175.734375 64.203125 174.351562 62.929688 174.351562 60.386719 C 174.351562 59.335938 174.738281 56.457031 176.007812 54.355469 C 177.5 51.921875 179.601562 51.421875 180.820312 51.421875 C 183.75 51.421875 184.027344 53.746094 184.027344 54.855469 C 184.027344 56.511719 183.308594 59.390625 182.144531 61.214844 C 180.765625 63.261719 178.828125 64.203125 177.5 64.203125 Z M 177.5 64.203125 "
       id="path76" />
    <path
       style=" stroke:none;fill-rule:nonzero;fill:rgb(0%,0%,0%);fill-opacity:1;"
       d="M 204.660156 47.304688 L 203.828125 47.304688 C 203.773438 47.859375 203.496094 49.296875 203.167969 49.519531 C 203 49.683594 201.121094 49.683594 200.734375 49.683594 L 196.199219 49.683594 C 198.796875 47.417969 199.683594 46.699219 201.121094 45.535156 C 202.945312 44.097656 204.660156 42.550781 204.660156 40.226562 C 204.660156 37.238281 202.058594 35.414062 198.910156 35.414062 C 195.867188 35.414062 193.765625 37.570312 193.765625 39.839844 C 193.765625 41.054688 194.816406 41.222656 195.09375 41.222656 C 195.648438 41.222656 196.367188 40.777344 196.367188 39.894531 C 196.367188 39.449219 196.199219 38.566406 194.929688 38.566406 C 195.703125 36.851562 197.359375 36.296875 198.523438 36.296875 C 201.011719 36.296875 202.28125 38.234375 202.28125 40.226562 C 202.28125 42.382812 200.734375 44.042969 199.960938 44.925781 L 194.042969 50.847656 C 193.765625 51.066406 193.765625 51.125 193.765625 51.789062 L 203.941406 51.789062 Z M 204.660156 47.304688 "
       id="path78" />
    <path
       style=" stroke:none;fill-rule:nonzero;fill:rgb(0%,0%,0%);fill-opacity:1;"
       d="M 242.042969 53.027344 C 242.59375 53.027344 243.257812 53.027344 243.257812 52.363281 C 243.257812 51.644531 242.59375 51.644531 242.097656 51.644531 L 220.976562 51.644531 C 220.480469 51.644531 219.816406 51.644531 219.816406 52.363281 C 219.816406 53.027344 220.480469 53.027344 220.976562 53.027344 Z M 242.097656 59.886719 C 242.59375 59.886719 243.257812 59.886719 243.257812 59.167969 C 243.257812 58.503906 242.59375 58.503906 242.042969 58.503906 L 220.976562 58.503906 C 220.480469 58.503906 219.816406 58.503906 219.816406 59.167969 C 219.816406 59.886719 220.480469 59.886719 220.976562 59.886719 Z M 242.097656 59.886719 "
       id="path80" />
    <path
       style=" stroke:none;fill-rule:nonzero;fill:rgb(0%,0%,0%);fill-opacity:1;"
       d="M 265.4375 42.019531 C 265.4375 41.132812 265.4375 41.078125 264.609375 41.078125 C 262.398438 43.347656 259.300781 43.347656 258.195312 43.347656 L 258.195312 44.453125 C 258.914062 44.453125 260.960938 44.453125 262.785156 43.511719 L 262.785156 61.824219 C 262.785156 63.097656 262.675781 63.484375 259.523438 63.484375 L 258.417969 63.484375 L 258.417969 64.589844 C 259.632812 64.480469 262.675781 64.480469 264.113281 64.480469 C 265.496094 64.480469 268.589844 64.480469 269.808594 64.589844 L 269.808594 63.484375 L 268.699219 63.484375 C 265.496094 63.484375 265.4375 63.097656 265.4375 61.824219 Z M 265.4375 42.019531 "
       id="path82" />
  </g>
</svg>
